<svg xmlns="http://www.w3.org/2000/svg" width="894" height="894" viewBox="0 0 1080 1080" preserveAspectRatio="none"><defs><filter id="blur" x="-738" y="-694" width="3018" height="2827" filterUnits="userSpaceOnUse"><feGaussianBlur stdDeviation="75"/></filter><filter id="grain" x="-738" y="-694" width="3018" height="2827" filterUnits="userSpaceOnUse" primitiveUnits="userSpaceOnUse" color-interpolation-filters="linearRGB">
				<feTurbulence type="fractalNoise" baseFrequency=".2" numOctaves="4" seed="15" stitchTiles="no-stitch" x="0" y="0" width="1080" height="1080" result="turbulence"/>
				<feSpecularLighting surfaceScale="10" specularConstant="1.21" specularExponent="20" lighting-color="#fff" x="0" y="0" width="1080" height="1080" in="turbulence" result="specularLighting">
					<feDistantLight azimuth="3" elevation="100"/>
				</feSpecularLighting>
			</filter></defs><rect width="1080" height="1080" fill="#ffffff"/><path d="M 341.95 451.03 L 69.38 743.56 L -263.03 885.31 L -582.68 652.70 L -587.12 247.22 L -329.10 128.66 L 160.82 43.83 Z" fill="#50C73E" fill-opacity="1" filter="url(#blur)"/><path d="M 1352.33 799.35 L 1265.75 1253.46 L 879.42 1334.05 L 647.53 1217.86 L 463.00 1110.30 L 403.47 931.28 L 455.34 504.00 L 866.86 438.96 L 1121.60 519.98 Z" fill="#50C73E" fill-opacity="1" filter="url(#blur)"/><path d="M 1051.29 -114.83 L 973.78 240.86 L 585.69 345.85 L 337.86 63.54 L -15.76 37.34 L 82.71 -250.77 L 202.92 -516.68 L 503.20 -543.94 L 716.03 -365.26 Z" fill="#50C73E" fill-opacity="1" filter="url(#blur)"/><path d="M 1931.20 305.88 L 2052.20 755.18 L 1617.77 603.88 L 1302.27 486.39 L 1151.91 401.55 L 1080.96 308.34 L 1397.34 279.22 L 1713.40 345.39 Z" fill="#ffffff" fill-opacity="1" filter="url(#blur)"/><path d="M 741.71 392.79 L 678.60 502.39 L 532.09 537.78 L 482.15 414.87 L 539.98 308.33 L 667.20 327.89 Z" fill="#50C73E" fill-opacity="1" filter="url(#blur)"/><path d="M 2129.24 1669.84 L 1993.07 1951.80 L 1711.11 1982.84 L 1476.29 1904.67 L 1385.15 1669.84 L 1453.51 1412.24 L 1711.11 1280.49 L 1827.78 1428.19 Z" fill="#50C73E" fill-opacity="1" filter="url(#blur)"/><rect width="1080" height="1080" fill="#FFFFFF" filter="url(#grain)" opacity="1"/></svg>